<svg width="449" height="148" viewBox="0 0 449 148" fill="none" xmlns="http://www.w3.org/2000/svg">
<path d="M96.1 99.6V112.2H77.2V148H63V112.2H0V103.4L49.9 0H65.2L17.3 99.6H63L65.1 50H77.2V99.6H96.1Z" fill="#070422"/>
<path d="M312.1 74C312.1 114.869 272.701 148 224.1 148C175.499 148 136.1 114.869 136.1 74C136.1 33.1309 175.499 0 224.1 0C272.701 0 312.1 33.1309 312.1 74ZM149.406 74C149.406 108.69 182.847 136.811 224.1 136.811C265.352 136.811 298.794 108.69 298.794 74C298.794 39.3104 265.352 11.189 224.1 11.189C182.847 11.189 149.406 39.3104 149.406 74Z" fill="#070422"/>
<path fill-rule="evenodd" clip-rule="evenodd" d="M208.736 40.4752L180.452 68.7595L178.33 66.6382L206.615 38.3539L208.736 40.4752Z" fill="#070422"/>
<path fill-rule="evenodd" clip-rule="evenodd" d="M265.384 39.0294L237.1 67.3137L234.979 65.1924L263.263 36.9081L265.384 39.0294Z" fill="#070422"/>
<path fill-rule="evenodd" clip-rule="evenodd" d="M181.499 38.4458L209.784 66.7301L207.662 68.8514L179.378 40.5672L181.499 38.4458Z" fill="#070422"/>
<path fill-rule="evenodd" clip-rule="evenodd" d="M238.148 37L266.432 65.2843L264.311 67.4056L236.026 39.1214L238.148 37Z" fill="#070422"/>
<path d="M187.1 106.5C187.1 101.328 190.998 96.3684 197.937 92.7114C204.876 89.0545 214.287 87 224.1 87C233.913 87 243.324 89.0545 250.263 92.7114C257.202 96.3684 261.1 101.328 261.1 106.5L252.818 106.5C252.818 102.486 249.792 98.6362 244.407 95.7978C239.021 92.9594 231.716 91.3648 224.1 91.3648C216.483 91.3648 209.179 92.9594 203.793 95.7978C198.408 98.6362 195.382 102.486 195.382 106.5H187.1Z" fill="#070422"/>
<path d="M254.942 100.175C254.847 104.165 254.205 108.178 253.071 111.874C251.936 115.569 250.342 118.839 248.423 121.405C246.505 123.971 244.319 125.758 242.051 126.614C239.782 127.47 237.499 127.371 235.393 126.324C233.287 125.278 231.422 123.314 229.955 120.601C228.487 117.888 227.462 114.505 226.965 110.738C226.468 106.971 226.514 102.933 227.1 98.964C227.685 94.9954 228.793 91.214 230.328 87.9403L233.211 91.893C232.099 94.2645 231.296 97.0039 230.872 99.8788C230.448 102.754 230.414 105.68 230.774 108.408C231.134 111.137 231.877 113.588 232.94 115.553C234.003 117.519 235.354 118.941 236.88 119.699C238.405 120.458 240.06 120.53 241.703 119.909C243.346 119.289 244.93 117.994 246.32 116.135C247.709 114.277 248.864 111.908 249.686 109.231C250.508 106.554 250.973 103.647 251.042 100.756L254.942 100.175Z" fill="#070422"/>
<path d="M448.2 99.6V112.2H429.3V148H415.1V112.2H352.1V103.4L402 0H417.3L369.4 99.6H415.1L417.2 50H429.3V99.6H448.2Z" fill="#070422"/>
</svg>
